<svg xmlns="http://www.w3.org/2000/svg" viewBox="0 0 107 50"><defs><style>.a{fill:#fff;stroke:#d9d9d9;}.b{stroke:none;}.c{fill:none;}</style></defs><g transform="translate(-244 -656)"><g class="a" transform="translate(244 656)"><rect class="b" width="107" height="50" rx="4"/><rect class="c" x="0.5" y="0.5" width="106" height="49" rx="3.5"/></g><path d="M9.178,2.642A3.066,3.066,0,0,1,6.721,3.8,3.476,3.476,0,0,1,7.6,1.258,3.664,3.664,0,0,1,10.036,0a3.7,3.7,0,0,1-.858,2.642m.848,1.345c-1.355-.078-2.515.77-3.159.77s-1.638-.731-2.71-.712a4,4,0,0,0-3.4,2.067C-.707,8.628.375,12.352,1.788,14.4c.692,1.014,1.521,2.125,2.613,2.086,1.033-.039,1.443-.673,2.691-.673s1.618.673,2.71.653c1.131-.019,1.842-1.014,2.535-2.028a8.892,8.892,0,0,0,1.131-2.33,3.673,3.673,0,0,1-2.2-3.344,3.751,3.751,0,0,1,1.784-3.139,3.863,3.863,0,0,0-3.022-1.638M17.854,1.16v15.2h2.359v-5.2h3.266a4.824,4.824,0,0,0,5.079-5.011,4.767,4.767,0,0,0-5-4.991h-5.7Zm2.359,1.989h2.72c2.047,0,3.217,1.092,3.217,3.012s-1.17,3.022-3.227,3.022h-2.71ZM32.867,16.475a3.9,3.9,0,0,0,3.48-1.94H36.4v1.823H38.58V8.793c0-2.193-1.755-3.607-4.455-3.607-2.505,0-4.358,1.433-4.426,3.4h2.125a2.071,2.071,0,0,1,2.232-1.55c1.443,0,2.252.673,2.252,1.911v.838l-2.944.175c-2.739.166-4.221,1.287-4.221,3.237C29.143,15.169,30.673,16.475,32.867,16.475Zm.634-1.8c-1.258,0-2.057-.6-2.057-1.531,0-.955.77-1.511,2.242-1.6l2.622-.166v.858A2.564,2.564,0,0,1,33.5,14.672Zm7.994,5.82c2.3,0,3.383-.877,4.328-3.539l4.143-11.62h-2.4L44.79,14.311h-.049L41.962,5.333H39.5l4,11.065-.214.673a1.875,1.875,0,0,1-1.989,1.579c-.185,0-.546-.019-.692-.039v1.823A6.5,6.5,0,0,0,41.494,20.492Z" transform="translate(272.941 671)"/></g></svg>