<svg xmlns="http://www.w3.org/2000/svg" viewBox="0 0 100 100"><defs><style>.a{fill:#fff;}.b{fill:none;stroke:#d9d9d9;stroke-width:1.5px;}</style></defs><g transform="translate(-138 -96)"><circle class="a" cx="50" cy="50" r="50" transform="translate(138 96)"/><g transform="translate(220.39 132.997)"><path class="b" d="M47.545,45.07a6.356,6.356,0,0,0-4.664-1.933H37.108l-1.314-3.5A4.786,4.786,0,0,0,34,37.455a4.589,4.589,0,0,0-2.667-.915H18.142a4.59,4.59,0,0,0-2.667.915,4.787,4.787,0,0,0-1.791,2.178l-1.314,3.5H6.6A6.356,6.356,0,0,0,1.933,45.07,6.356,6.356,0,0,0,0,49.734V72.824a6.355,6.355,0,0,0,1.933,4.664A6.356,6.356,0,0,0,6.6,79.421H42.88a6.6,6.6,0,0,0,6.6-6.6V49.734A6.355,6.355,0,0,0,47.545,45.07ZM32.894,69.435a11.118,11.118,0,0,1-8.156,3.389,11.118,11.118,0,0,1-8.156-3.389,11.509,11.509,0,0,1,0-16.312,11.117,11.117,0,0,1,8.156-3.389,11.119,11.119,0,0,1,8.156,3.389,11.509,11.509,0,0,1,0,16.312Z" transform="translate(-57.39 -44.538)"/><path class="b" d="M199.278,228.4a7.435,7.435,0,1,0,5.244,2.178A7.148,7.148,0,0,0,199.278,228.4Z" transform="translate(-231.929 -219.083)"/></g></g></svg>