<svg xmlns="http://www.w3.org/2000/svg" viewBox="0 0 107 50"><defs><style>.a{fill:#fff;stroke:#d9d9d9;}.b{fill:#003087;}.c{fill:#002f86;}.d{fill:#009cde;}.e{fill:#012069;}.f{stroke:none;}.g{fill:none;}</style></defs><g transform="translate(-134 -656)"><g class="a" transform="translate(134 656)"><rect class="f" width="107" height="50" rx="4"/><rect class="g" x="0.5" y="0.5" width="106" height="49" rx="3.5"/></g><g transform="translate(153 672)"><path class="b" d="M12.706,1.328C11.891.4,10.417,0,8.531,0H3.059a.784.784,0,0,0-.774.661L.006,15.113a.47.47,0,0,0,.464.543H3.849L4.7,10.274l-.026.169a.781.781,0,0,1,.771-.661H7.047c3.154,0,5.624-1.281,6.345-4.987q.032-.164.056-.321h0a3.5,3.5,0,0,0-.742-3.146" transform="translate(0)"/><path class="c" d="M80.278,15.47H78.459a.524.524,0,0,0-.434.23l-2.509,3.694-1.063-3.55a.526.526,0,0,0-.5-.375H72.164a.315.315,0,0,0-.3.416l2,5.877-1.883,2.657a.315.315,0,0,0,.257.5h1.816a.526.526,0,0,0,.432-.226l6.047-8.728a.315.315,0,0,0-.259-.494M68.121,18.992a2.017,2.017,0,0,1-2.042,1.728,1.4,1.4,0,0,1-1.5-1.759,2.024,2.024,0,0,1,2.027-1.741,1.524,1.524,0,0,1,1.206.493,1.557,1.557,0,0,1,.307,1.279m2.521-3.521H68.833a.315.315,0,0,0-.311.266l-.079.506-.126-.183a2.577,2.577,0,0,0-2.137-.759,4.16,4.16,0,0,0-4.038,3.639,3.415,3.415,0,0,0,.674,2.779,2.831,2.831,0,0,0,2.278.92A3.464,3.464,0,0,0,67.6,21.6l-.081.5a.315.315,0,0,0,.311.364h1.629a.525.525,0,0,0,.519-.443l.978-6.193a.315.315,0,0,0-.311-.364m-10.856.043c-.207,1.356-1.242,1.356-2.244,1.356h-.57l.4-2.532a.314.314,0,0,1,.311-.265h.262c.682,0,1.326,0,1.658.388a1.261,1.261,0,0,1,.184,1.053m-.436-3.538H55.573a.525.525,0,0,0-.519.443l-1.528,9.687a.315.315,0,0,0,.311.364h1.8a.525.525,0,0,0,.518-.443l.413-2.614a.525.525,0,0,1,.518-.443h1.2c2.489,0,3.925-1.2,4.3-3.591a2.909,2.909,0,0,0-.482-2.438,3.5,3.5,0,0,0-2.754-.965" transform="translate(-32.666 -7.309)"/><path class="d" d="M141.924,12.242l-1.55,9.865a.315.315,0,0,0,.311.364h1.56a.525.525,0,0,0,.518-.443l1.529-9.687a.315.315,0,0,0-.311-.364h-1.745a.314.314,0,0,0-.311.266m-4.653,6.75a2.017,2.017,0,0,1-2.042,1.728,1.4,1.4,0,0,1-1.5-1.759,2.024,2.024,0,0,1,2.027-1.741,1.524,1.524,0,0,1,1.206.493,1.557,1.557,0,0,1,.307,1.279m2.521-3.521h-1.809a.315.315,0,0,0-.311.266l-.079.506-.127-.183a2.575,2.575,0,0,0-2.137-.759,4.16,4.16,0,0,0-4.038,3.639,3.415,3.415,0,0,0,.674,2.779,2.831,2.831,0,0,0,2.278.92,3.464,3.464,0,0,0,2.5-1.035l-.081.5a.315.315,0,0,0,.311.364h1.629a.525.525,0,0,0,.519-.443l.978-6.193a.315.315,0,0,0-.311-.364m-10.856.043c-.207,1.356-1.242,1.356-2.244,1.356h-.57l.4-2.532a.314.314,0,0,1,.311-.265h.262c.682,0,1.326,0,1.658.388a1.261,1.261,0,0,1,.184,1.053m-.436-3.538h-3.778a.525.525,0,0,0-.519.443l-1.528,9.687a.315.315,0,0,0,.311.364h1.939a.367.367,0,0,0,.363-.31l.434-2.747a.525.525,0,0,1,.518-.443h1.2c2.489,0,3.925-1.2,4.3-3.591a2.909,2.909,0,0,0-.482-2.438,3.5,3.5,0,0,0-2.754-.965" transform="translate(-74.869 -7.309)"/><path class="b" d="M12.706,1.328C11.891.4,10.417,0,8.531,0H3.059a.784.784,0,0,0-.774.661L.006,15.113a.47.47,0,0,0,.464.543H3.849L4.7,10.274l-.026.169a.781.781,0,0,1,.771-.661H7.047c3.154,0,5.624-1.281,6.345-4.987q.032-.164.056-.321h0a3.5,3.5,0,0,0-.742-3.146" transform="translate(0)"/><path class="c" d="M5.609,4.492a.684.684,0,0,1,.677-.578h4.29a8.959,8.959,0,0,1,1.415.1q.186.03.361.069t.34.087c.055.016.109.033.162.05a3.876,3.876,0,0,1,.593.251,3.5,3.5,0,0,0-.742-3.146C11.89.4,10.417,0,8.531,0H3.058a.784.784,0,0,0-.774.661L.006,15.113a.469.469,0,0,0,.464.543H3.849L4.7,10.274l.912-5.781Z" transform="translate(0 0)"/><path class="d" d="M19.1,11.481h0c-.017.1-.035.211-.056.321-.721,3.705-3.191,4.987-6.345,4.987H11.1a.78.78,0,0,0-.771.661L9.5,22.663,9.27,24.141a.411.411,0,0,0,.406.475h2.848a.685.685,0,0,0,.677-.578l.028-.145.537-3.4L13.8,20.3a.685.685,0,0,1,.677-.578H14.9c2.759,0,4.919-1.121,5.55-4.362a3.716,3.716,0,0,0-.57-3.28,2.72,2.72,0,0,0-.78-.6" transform="translate(-5.654 -7.007)"/><path class="e" d="M20.009,10.3q-.165-.048-.34-.087c-.117-.026-.238-.049-.361-.069a8.9,8.9,0,0,0-1.416-.1H13.6a.685.685,0,0,0-.677.579L12.013,16.4l-.026.169a.78.78,0,0,1,.771-.661h1.606c3.154,0,5.624-1.281,6.345-4.987.021-.11.039-.216.056-.321a3.9,3.9,0,0,0-.593-.25c-.053-.018-.107-.035-.162-.051" transform="translate(-7.316 -6.13)"/></g></g></svg>