<svg xmlns="http://www.w3.org/2000/svg" viewBox="0 0 30.899 10"><defs><style>.a{fill:#00579f;}.b{fill:#faa61a;}</style></defs><g transform="translate(0.001 0)"><path class="a" d="M436.01,120.407h-2.5l1.566-9.68h2.5Z" transform="translate(-422.621 -110.552)"/><path class="a" d="M572.687,105.46a6.168,6.168,0,0,0-2.245-.412c-2.472,0-4.213,1.318-4.223,3.2-.021,1.39,1.246,2.163,2.194,2.626.968.474,1.3.783,1.3,1.205-.01.649-.783.947-1.5.947a4.982,4.982,0,0,1-2.349-.515l-.329-.155-.35,2.173a7.618,7.618,0,0,0,2.792.515c2.626,0,4.336-1.3,4.356-3.306.01-1.1-.659-1.946-2.1-2.636-.875-.443-1.412-.742-1.412-1.195.01-.412.453-.834,1.442-.834a4.253,4.253,0,0,1,1.865.371l.226.1.34-2.09Z" transform="translate(-550.224 -105.048)"/><path class="a" d="M794.395,116.978c.206-.556,1-2.708,1-2.708-.01.021.206-.566.329-.927l.175.834s.474,2.317.577,2.8Zm3.09-6.251h-1.936a1.235,1.235,0,0,0-1.308.8l-3.718,8.877h2.626l.525-1.452h3.214c.072.34.3,1.452.3,1.452H799.5l-2.019-9.68Z" transform="translate(-768.605 -110.552)"/><path class="a" d="M172.015,110.727l-2.451,6.6-.268-1.339a7.409,7.409,0,0,0-3.461-4.058l2.245,8.465h2.647l3.934-9.67Z" transform="translate(-163.22 -110.552)"/><path class="b" d="M85.234,110.727H81.207l-.041.2a8.375,8.375,0,0,1,6.077,5.067l-.875-4.449a1.036,1.036,0,0,0-1.133-.814Z" transform="translate(-81.166 -110.552)"/></g></svg>