<svg xmlns="http://www.w3.org/2000/svg" viewBox="0 0 12 10"><defs><style>.a{fill:#8e8e8e;}</style></defs><g transform="translate(0)"><path class="a" d="M0,208v5.455a.842.842,0,0,0,.75.909h10.5a.841.841,0,0,0,.75-.909V208Zm4.125,3.636H1.875a.463.463,0,0,1,0-.909h2.25a.463.463,0,0,1,0,.909Zm5.25.909a1.02,1.02,0,0,1-.75-.354,1.02,1.02,0,0,1-.75.354,1.389,1.389,0,0,1,0-2.727,1.02,1.02,0,0,1,.75.354,1.02,1.02,0,0,1,.75-.354,1.389,1.389,0,0,1,0,2.727Z" transform="translate(0 -204.364)"/><path class="a" d="M11.25,80H.75a.843.843,0,0,0-.75.909v.909H12v-.909A.842.842,0,0,0,11.25,80Z" transform="translate(0 -80)"/></g></svg>