<svg xmlns="http://www.w3.org/2000/svg" viewBox="0 0 46 46"><defs><style>.a{fill:#fbbb00;}.b{fill:#518ef8;}.c{fill:#28b446;}.d{fill:#f14336;}</style></defs><g transform="translate(-201 -768)"><path class="a" d="M10.195,153.644l-1.6,5.977-5.852.124a23.04,23.04,0,0,1-.169-21.477h0l5.21.955,2.282,5.179a13.726,13.726,0,0,0,.129,9.242Z" transform="translate(201 642.155)"/><path class="b" d="M283.72,208.176a22.991,22.991,0,0,1-8.2,22.233h0l-6.563-.335-.929-5.8a13.708,13.708,0,0,0,5.9-7h-12.3v-9.1H283.72Z" transform="translate(-37.122 578.527)"/><path class="c" d="M65.166,322.546h0a23.007,23.007,0,0,1-34.658-7.036l7.454-6.1a13.679,13.679,0,0,0,19.712,7Z" transform="translate(173.232 486.389)"/><path class="d" d="M63.733,5.3l-7.451,6.1a13.677,13.677,0,0,0-20.164,7.162l-7.493-6.134h0A23,23,0,0,1,63.733,5.3Z" transform="translate(174.948 768)"/></g></svg>