<svg xmlns="http://www.w3.org/2000/svg" viewBox="0 0 48 49"><defs><style>.a{fill:none;}.b,.c{fill:#fff;}.b{font-size:10px;font-family:SFProText-Regular, SF Pro Text;letter-spacing:-0.024em;}</style></defs><g transform="translate(-14 -618)"><rect class="a" width="48" height="49" transform="translate(14 618)"/><text class="b" transform="translate(14 652)"><tspan x="13.261" y="10">User</tspan></text><path class="c" d="M28,14A14,14,0,1,0,4.927,24.643a.467.467,0,0,0,.142.106A13.851,13.851,0,0,0,14.035,28a14.147,14.147,0,0,0,8.892-3.178.561.561,0,0,0,.321-.251A14.174,14.174,0,0,0,28,14ZM1.286,14a12.715,12.715,0,1,1,21.859,8.823,9.487,9.487,0,0,0-4.716-6.392A5.458,5.458,0,0,0,19.607,13,5.572,5.572,0,1,0,8.462,13,5.765,5.765,0,0,0,9.64,16.432a9.265,9.265,0,0,0-4.709,6.392A12.473,12.473,0,0,1,1.286,14Zm8.429-.966A4.286,4.286,0,1,1,14,17.322,4.3,4.3,0,0,1,9.716,13.036ZM6.072,23.929a8.006,8.006,0,0,1,4.5-6.5A5.534,5.534,0,0,0,14,18.6a5.67,5.67,0,0,0,3.466-1.214A8.161,8.161,0,0,1,22,23.893a12.729,12.729,0,0,1-7.963,2.821A12.6,12.6,0,0,1,6.072,23.929Z" transform="translate(25 624)"/></g></svg>