<svg xmlns="http://www.w3.org/2000/svg" xmlns:xlink="http://www.w3.org/1999/xlink" viewBox="0 0 52 52"><defs><style>.a{fill:#fff;stroke:#707070;}.b{clip-path:url(#a);}</style><clipPath id="a"><rect class="a" width="52" height="52" transform="translate(275 105)"/></clipPath></defs><g class="b" transform="translate(-275 -105)"><path d="M17.628,10.034a.536.536,0,0,0-.485-.351H.535a.536.536,0,0,0-.485.351.682.682,0,0,0,.071.65l6.384,8.84v8.151a.635.635,0,0,0,.253.52.488.488,0,0,0,.283.092.482.482,0,0,0,.238-.064l3.587-2.03a.625.625,0,0,0,.3-.547l.007-6.122,6.385-8.84A.682.682,0,0,0,17.628,10.034Zm-7.405,8.881a.666.666,0,0,0-.122.388l-.007,5.962L7.578,26.689V19.3a.666.666,0,0,0-.122-.389L1.672,10.906H16.007Z" transform="translate(292.68 111.957)"/></g></svg>