<svg xmlns="http://www.w3.org/2000/svg" viewBox="0 0 39 39"><defs><style>.a{fill:#fff;}.b{fill:none;stroke:#8e8e8e;stroke-width:2px;}.c,.d{stroke:none;}.d{fill:#8e8e8e;}</style></defs><g transform="translate(-168 -1011)"><g class="a" transform="translate(168 1011)"><path class="c" d="M 19.5 38.5 C 16.93479919433594 38.5 14.44659042358398 37.99771118164062 12.10449981689453 37.0070915222168 C 9.842049598693848 36.0501594543457 7.810060024261475 34.68011856079102 6.064970016479492 32.93503189086914 C 4.31988000869751 31.18993949890137 2.949840068817139 29.15794944763184 1.992910027503967 26.89550018310547 C 1.002290010452271 24.55340957641602 0.5 22.06520080566406 0.5 19.5 C 0.5 16.93479919433594 1.002290010452271 14.44659042358398 1.992910027503967 12.10449981689453 C 2.949840068817139 9.842049598693848 4.31988000869751 7.810060024261475 6.064970016479492 6.064970016479492 C 7.810060024261475 4.31988000869751 9.842049598693848 2.949840068817139 12.10449981689453 1.992910027503967 C 14.44659042358398 1.002290010452271 16.93479919433594 0.5 19.5 0.5 C 22.06520080566406 0.5 24.55340957641602 1.002290010452271 26.89550018310547 1.992910027503967 C 29.15794944763184 2.949840068817139 31.18993949890137 4.31988000869751 32.93503189086914 6.064970016479492 C 34.68011856079102 7.810060024261475 36.0501594543457 9.842049598693848 37.0070915222168 12.10449981689453 C 37.99771118164062 14.44659042358398 38.5 16.93479919433594 38.5 19.5 C 38.5 22.06520080566406 37.99771118164062 24.55340957641602 37.0070915222168 26.89550018310547 C 36.0501594543457 29.15794944763184 34.68011856079102 31.18993949890137 32.93503189086914 32.93503189086914 C 31.18993949890137 34.68011856079102 29.15794944763184 36.0501594543457 26.89550018310547 37.0070915222168 C 24.55340957641602 37.99771118164062 22.06520080566406 38.5 19.5 38.5 Z"/><path class="d" d="M 19.5 38 C 21.9979190826416 38 24.42060089111328 37.51100158691406 26.70072937011719 36.54658889770508 C 28.9035701751709 35.61486053466797 30.88213920593262 34.28081130981445 32.58147048950195 32.58147048950195 C 34.28081130981445 30.88213920593262 35.61486053466797 28.9035701751709 36.54658889770508 26.70072937011719 C 37.51100158691406 24.42060089111328 38 21.9979190826416 38 19.5 C 38 17.0020809173584 37.51100158691406 14.57940006256104 36.54658889770508 12.2992696762085 C 35.61486053466797 10.0964298248291 34.28081130981445 8.117859840393066 32.58147048950195 6.418529987335205 C 30.88213920593262 4.719190120697021 28.9035701751709 3.385139942169189 26.70072937011719 2.453409910202026 C 24.42060089111328 1.488999962806702 21.9979190826416 1 19.5 1 C 17.0020809173584 1 14.57940006256104 1.488999962806702 12.2992696762085 2.453409910202026 C 10.0964298248291 3.385139942169189 8.117859840393066 4.719190120697021 6.418529987335205 6.418529987335205 C 4.719190120697021 8.117859840393066 3.385139942169189 10.0964298248291 2.453409910202026 12.2992696762085 C 1.488999962806702 14.57940006256104 1 17.0020809173584 1 19.5 C 1 21.9979190826416 1.488999962806702 24.42060089111328 2.453409910202026 26.70072937011719 C 3.385139942169189 28.9035701751709 4.719190120697021 30.88213920593262 6.418529987335205 32.58147048950195 C 8.117859840393066 34.28081130981445 10.0964298248291 35.61486053466797 12.2992696762085 36.54658889770508 C 14.57940006256104 37.51100158691406 17.0020809173584 38 19.5 38 M 19.5 39 C 8.730449676513672 39 0 30.26955032348633 0 19.5 C 0 8.730449676513672 8.730449676513672 0 19.5 0 C 30.26955032348633 0 39 8.730449676513672 39 19.5 C 39 30.26955032348633 30.26955032348633 39 19.5 39 Z"/></g><g transform="translate(0.162 138.662)"><line class="b" y2="20" transform="translate(187.56 882.338)"/><line class="b" y2="20" transform="translate(197.838 892.616) rotate(90)"/></g></g></svg>