<svg xmlns="http://www.w3.org/2000/svg" xmlns:xlink="http://www.w3.org/1999/xlink" viewBox="0 0 18 20"><defs><style>.a{fill:#8e8e8e;}.b{fill:#464d53;}.c{clip-path:url(#a);}.d{clip-path:url(#b);}</style><clipPath id="a"><path class="a" d="M11.8,19.954a.741.741,0,0,1-.557-.273.541.541,0,0,1,.116-.736,4.467,4.467,0,0,0,1.9-4.354,6.168,6.168,0,0,0-1.417-2.882,2.452,2.452,0,0,1-.7,1.22.713.713,0,0,1-.65.147.6.6,0,0,1-.441-.442A5.161,5.161,0,0,0,8.038,9.647a6.621,6.621,0,0,1-1.51,3.282,3.09,3.09,0,0,1-.209.273l-.046.084c-1.812,2.461-1.974,4.354-.465,5.68a.565.565,0,0,1,.116.715.674.674,0,0,1-.743.252C2.72,19.218,1.117,17.935.4,16.1c-.975-2.524,0-5.6,1.394-7.51.3-.421.627-.841.952-1.241C4.438,5.166,5.9,3.273,5.507.622A.531.531,0,0,1,5.739.1a.73.73,0,0,1,.627-.105,9.992,9.992,0,0,1,5.9,5.6,3.374,3.374,0,0,0,.093-1.956.533.533,0,0,1,.186-.589.7.7,0,0,1,.674-.105c1.835.694,4.831,5.427,4.785,9.529,0,2.44-1.068,5.722-5.969,7.447A.9.9,0,0,1,11.8,19.954ZM6.877,1.464C6.9,4.051,5.391,5.986,3.811,8.027c-.3.4-.627.8-.929,1.22C1.7,10.867.792,13.58,1.628,15.726a4.455,4.455,0,0,0,2.09,2.314c-.441-1.283-.255-3.05,1.51-5.427l.046-.063c.07-.084.139-.189.232-.295A4.58,4.58,0,0,0,6.784,8.721.578.578,0,0,1,7.016,8.2a.67.67,0,0,1,.627-.084,5.867,5.867,0,0,1,3.019,2.566.836.836,0,0,0-.023-.105.546.546,0,0,1,.209-.589.7.7,0,0,1,.674-.084,6.731,6.731,0,0,1,3.066,4.523,5.135,5.135,0,0,1-.441,3.155,6.015,6.015,0,0,0,2.648-5.091,12.546,12.546,0,0,0-3-7.594,3.914,3.914,0,0,1-1.231,2.545.674.674,0,0,1-.627.126.6.6,0,0,1-.441-.442A9.349,9.349,0,0,0,6.877,1.464Z" transform="translate(-0.003 0.038)"/></clipPath><clipPath id="b"><path class="b" d="M-128-187.76H113.35V-355H-128Z" transform="translate(128 355)"/></clipPath></defs><g class="c" transform="translate(0 0)"><g class="d" transform="translate(-51.157 -23.373)"><path class="b" d="M-3-268.35H23.112V-292H-3Z" transform="translate(49.629 313.285)"/></g></g></svg>