<svg xmlns="http://www.w3.org/2000/svg" viewBox="0 0 17.446 16"><defs><style>.a{fill:#fff;}</style></defs><path class="a" d="M10.125,11.429l1.869-1.571a.606.606,0,0,1,.467-.143l.312.143,4.362,1.857c.312.143.312.286.312.571A3.5,3.5,0,0,1,16.2,14.857,4.689,4.689,0,0,1,12.929,16a10.188,10.188,0,0,1-4.362-1,20.5,20.5,0,0,1-4.362-2.857A24.356,24.356,0,0,1,1.869,9,18.994,18.994,0,0,1,.312,5.857,8.1,8.1,0,0,1,0,3.143,3.631,3.631,0,0,1,1.09,1,4.989,4.989,0,0,1,4.05,0a.835.835,0,0,1,.623.286l2.337,4a.488.488,0,0,0,.156.286A.5.5,0,0,1,7.01,5L4.985,6.714a.594.594,0,0,0,0,.714A13.811,13.811,0,0,0,6.854,9.714a15.547,15.547,0,0,0,2.492,1.857C9.658,11.714,9.969,11.714,10.125,11.429Z" transform="translate(0)"/></svg>