<svg xmlns="http://www.w3.org/2000/svg" viewBox="0 0 14.96 16.694"><g transform="translate(0 0)"><g transform="translate(0)"><path d="M44.464,1.956H41.472V1.467A1.484,1.484,0,0,0,39.976,0H36.984a1.484,1.484,0,0,0-1.5,1.467v.489H32.5A1.484,1.484,0,0,0,31,3.424V4.4a.494.494,0,0,0,.5.489h.538l.877,10.465v0a1.478,1.478,0,0,0,1.49,1.334h8.152a1.478,1.478,0,0,0,1.49-1.334v0l.877-10.465h.538a.494.494,0,0,0,.5-.489V3.424A1.484,1.484,0,0,0,44.464,1.956Zm-7.979-.489a.5.5,0,0,1,.5-.489h2.992a.5.5,0,0,1,.5.489v.489H36.485Zm6.567,13.805a.493.493,0,0,1-.5.443H34.4a.493.493,0,0,1-.5-.443l-.87-10.382H43.923Zm1.91-11.36H32V3.424a.5.5,0,0,1,.5-.489H44.464a.5.5,0,0,1,.5.489Z" transform="translate(-31)"/></g><g transform="translate(6.981 5.869)"><path d="M241.5,180a.494.494,0,0,0-.5.489V187.4a.5.5,0,0,0,1,0v-6.912A.494.494,0,0,0,241.5,180Z" transform="translate(-241 -180)"/></g><g transform="translate(9.973 5.869)"><path d="M331.5,180a.494.494,0,0,0-.5.489V187.4a.5.5,0,0,0,1,0v-6.912A.494.494,0,0,0,331.5,180Z" transform="translate(-331 -180)"/></g><g transform="translate(3.989 5.869)"><path d="M151.5,180a.494.494,0,0,0-.5.489V187.4a.5.5,0,0,0,1,0v-6.912A.494.494,0,0,0,151.5,180Z" transform="translate(-151 -180)"/></g></g></svg>