<svg xmlns="http://www.w3.org/2000/svg" viewBox="0 0 375 124"><defs><style>.a{fill:none;}.b,.c{fill:#fff;}.b{font-size:34px;font-family:SFProText-BoldItalic, SF Pro Text;font-weight:700;font-style:italic;letter-spacing:-0.01em;}</style></defs><g transform="translate(0 -54)"><rect class="a" width="375" height="124" transform="translate(0 54)"/><g transform="translate(3.335 -175.427)"><g transform="translate(53.665 250)"><g transform="translate(105 22.427)"><g transform="translate(0 0)"><text class="b" transform="translate(0 32)"><tspan x="0" y="0">NomNom</tspan></text></g></g><circle cx="41.5" cy="41.5" r="41.5" transform="translate(0 0.427)"/></g><g transform="translate(73.86 264.304)"><path class="c" d="M36.227,24.985a.942.942,0,0,0,1.2-.59,1.662,1.662,0,0,1,2.1-1.037,3.549,3.549,0,0,0,4.494-2.217.943.943,0,1,0-1.785-.606,1.66,1.66,0,0,1-2.1,1.037,3.553,3.553,0,0,0-4.494,2.217A.944.944,0,0,0,36.227,24.985Z" transform="translate(-7.611 -1.145)"/><path class="c" d="M38.593,18.017a.942.942,0,0,0,1.2-.59,1.657,1.657,0,0,1,2.1-1.037,3.549,3.549,0,0,0,4.494-2.218.942.942,0,1,0-1.784-.606A1.659,1.659,0,0,1,42.5,14.6,3.542,3.542,0,0,0,38,16.821.943.943,0,0,0,38.593,18.017Z" transform="translate(-7.747 -0.744)"/><path class="c" d="M40.958,11.082a.943.943,0,0,0,1.2-.59,1.227,1.227,0,0,1,1.553-.766,3.108,3.108,0,0,0,3.945-1.944.943.943,0,1,0-1.785-.606,1.222,1.222,0,0,1-1.554.764,3.118,3.118,0,0,0-3.944,1.945A.943.943,0,0,0,40.958,11.082Z" transform="translate(-7.883 -0.376)"/><path class="c" d="M45.264,23.578A66.329,66.329,0,0,0,48.313,5.844a6.75,6.75,0,0,0-1.764-4.6A3.922,3.922,0,0,0,41.7.527c-2.815,1.452-4.828,5.724-6.445,9.159l-.275.582A5.457,5.457,0,0,0,32,6.487,4.5,4.5,0,0,0,28.5,3.012a2.915,2.915,0,0,0-.072-.291,3.251,3.251,0,0,0-2.694-2.3,3.165,3.165,0,0,0-2,.411A3.426,3.426,0,0,0,22.065.4,3.472,3.472,0,0,0,18.69,3.071a4.246,4.246,0,0,0-3.119,4.044,4.719,4.719,0,0,0-3.214,6.275,3.708,3.708,0,0,0-.517,3.809,5.008,5.008,0,0,0-3.755-1.812.943.943,0,0,0,.028,1.885c.032,0,.061,0,.091,0a3.273,3.273,0,0,1,2.3,1.263c-1.495.431-3.3,1.132-4.137,2.717a4.793,4.793,0,0,0-.232,3.461,1.622,1.622,0,0,0-.232.94l1.6,22.8a5.368,5.368,0,0,0,5.363,5.1H39.328a5.364,5.364,0,0,0,5.362-5.08l1.645-23.6A1.244,1.244,0,0,0,46,23.941,1.217,1.217,0,0,0,45.264,23.578ZM35.752,12.964c.373-.7.78-1.56,1.211-2.475,1.416-3.008,3.358-7.128,5.6-8.287a2.037,2.037,0,0,1,2.632.352,4.9,4.9,0,0,1,1.23,3.24A64.544,64.544,0,0,1,43.4,23.225c-.061.2-.2.595-.39,1.14l-1.606.713a.876.876,0,0,0-.1.054,2.945,2.945,0,0,1-3.007,0l-.672-.4a4.877,4.877,0,0,0-2.505-.694,5.32,5.32,0,0,0-2.568.695l-.671.4a2.945,2.945,0,0,1-1.2.373c.021-.071.044-.14.065-.211.261-.89.543-1.767.837-2.637.107-.319.22-.634.333-.95q.369-1.038.769-2.054c.114-.289.223-.582.341-.869A61.862,61.862,0,0,1,35.752,12.964ZM24.863,24.114c-.1.018-.206.037-.308.061a4.844,4.844,0,0,0-.909.291l-.181-.827c.271.023.542.045.8.045a7.288,7.288,0,0,0,4.488-1.571,11.547,11.547,0,0,1,1.306-.813c-.087.246-.172.491-.256.738-.06.177-.125.352-.184.53q-.416,1.258-.787,2.537L28.2,24.73a4.877,4.877,0,0,0-2.505-.694,4.784,4.784,0,0,0-.678.054C24.967,24.1,24.915,24.107,24.863,24.114Zm-1.5-12.738a.39.39,0,0,1-.166-.761l5.287-1.147a.392.392,0,0,1,.382.306.384.384,0,0,1-.055.294.389.389,0,0,1-.243.171Zm.371,3.823c.11-.141.218-.279.321-.417a2.325,2.325,0,0,0,.194-.3,2.02,2.02,0,0,0,.179-1.405l3.934-.86a2.153,2.153,0,0,0,.1.352,2.113,2.113,0,0,0,.929,1.041c.143.079.293.158.448.24.127.067.254.137.383.206l.185.1c.112.063.221.133.33.2.093.057.186.117.276.18s.2.153.3.234.172.15.254.23.178.177.26.275a3.241,3.241,0,0,1,.4.569c-.4.882-.776,1.782-1.139,2.69-.057.14-.117.277-.172.418a9.619,9.619,0,0,0-3.264,1.629A5.547,5.547,0,0,1,23.042,21.7l-.572-2.619C22.082,17.309,22.923,16.236,23.737,15.2Zm-5.58,23.434a.942.942,0,1,1,0,1.885h-6.6a.942.942,0,1,1,0-1.885Zm-6.6,3.77h8.482a.942.942,0,1,1,0,1.885H11.56a.942.942,0,0,1,0-1.885Zm2.532-28.1.617-.509-.4-.691a2.834,2.834,0,0,1,2.339-4.255L17.792,8.8,17.525,7.69a2.323,2.323,0,0,1-.068-.545,2.346,2.346,0,0,1,2.158-2.329l.871-.066V3.813a1.583,1.583,0,0,1,1.58-1.529,1.556,1.556,0,0,1,1.053.413l.661.6.633-.626a1.3,1.3,0,0,1,1.1-.373,1.359,1.359,0,0,1,1.108.959,1.228,1.228,0,0,1,.044.5l-.11,1.052h1.061a2.6,2.6,0,0,1,2.58,2.41l.042.619.585.205a3.592,3.592,0,0,1,2.409,3.471,3.4,3.4,0,0,1-.618,1.871,9.972,9.972,0,0,0-1.881-1.2c-.148-.078-.291-.154-.435-.234a.206.206,0,0,1-.106-.161.538.538,0,0,1,.131-.418,2.023,2.023,0,0,0,.443-1.741l-.114-.519a2.041,2.041,0,0,0-2.391-1.533l-.252.055H28l-2.766.605-2.7.589A2.01,2.01,0,0,0,21,11.221l.057.256v0s0,0,0,0l.056.255a2,2,0,0,0,1.166,1.411.571.571,0,0,1,.312.3c.024.07.01.106-.044.2-.094.125-.194.254-.3.384s-.213.273-.322.418c-.034.044-.066.09-.1.136-.081.109-.161.222-.242.339-.041.059-.08.121-.121.182-.073.112-.143.227-.212.347-.039.067-.076.133-.114.2-.072.133-.137.273-.2.416-.026.059-.055.116-.079.177a5.431,5.431,0,0,0-.216.647c-.008.034-.012.071-.021.106a5.2,5.2,0,0,0-.106.6c-.009.083-.011.17-.017.255-.008.111-.022.218-.022.334-.027-.036-.054-.066-.081-.1-.062-.081-.124-.155-.187-.232-.139-.172-.28-.336-.42-.49-.069-.075-.139-.15-.207-.221-.148-.151-.3-.289-.447-.419-.056-.048-.11-.1-.166-.147a5.7,5.7,0,0,0-.6-.431c-.061-.038-.123-.066-.185-.1a4.582,4.582,0,0,0-.441-.221c-.081-.035-.163-.065-.245-.093a3.8,3.8,0,0,0-.405-.119c-.082-.02-.164-.041-.246-.056a3.669,3.669,0,0,0-.517-.049c-.04,0-.079-.011-.119-.011a4.895,4.895,0,0,0-2.661.9,1.794,1.794,0,0,1-.132-.679A1.826,1.826,0,0,1,14.092,14.306ZM8.037,22.131c.4-.751,1.367-1.324,3.047-1.8a5.086,5.086,0,0,0,2.107-1.209c.263-.252.512-.469.752-.664a7.633,7.633,0,0,1,.619-.458l.023-.014a3.769,3.769,0,0,1,1.1-.515l.041-.009a2.133,2.133,0,0,1,.488-.062c1.186,0,2.457,1.183,3.779,3.515a7.152,7.152,0,0,1,.623,4.6c-.071-.007-.139-.016-.209-.027a2.932,2.932,0,0,1-.96-.35l-.672-.4a4.877,4.877,0,0,0-2.505-.694,5.32,5.32,0,0,0-2.568.695l-.327.2a3.61,3.61,0,0,1-3.7,0l-1.269-.762a1.627,1.627,0,0,0-.532-.2A2.705,2.705,0,0,1,8.037,22.131Zm13.89,25.926H11.56a.942.942,0,0,1,0-1.885H21.926a.942.942,0,0,1,0,1.885Zm5.655,0H25.7a.942.942,0,1,1,0-1.885h1.885a.942.942,0,0,1,0,1.885Z" transform="translate(-5.902 0)"/></g></g></g></svg>