<svg xmlns="http://www.w3.org/2000/svg" viewBox="0 0 23.034 24"><defs><style>.a{fill:#fff;font-size:8px;font-family:SFProText-Regular, SF Pro Text;}</style></defs><g transform="translate(-1124 -134.909)"><path d="M108.97,285.4a1.5,1.5,0,1,0,1.5,1.5A1.5,1.5,0,0,0,108.97,285.4Z" transform="translate(1023.53 -129.487)"/><path d="M244.045,285.4a1.5,1.5,0,1,0,1.5,1.5A1.5,1.5,0,0,0,244.045,285.4Z" transform="translate(897.455 -129.487)"/><path d="M22.569,29.114c-.7-.281-1.149-.087-1.562,1.065l-1.03,2.741-9.572,0a.889.889,0,1,0,0,1.778l9.043,0-.561,1.88H8.1l-.716-5.674L6.7,25.381a1.075,1.075,0,0,0-.8-.906l-4.55-1.154A1.074,1.074,0,1,0,.813,25.4l3.838.974L6.145,37.531s.051,1.3,1.239,1.3H19.308A1.261,1.261,0,0,0,20.5,37.8l2.363-6.98S23.4,29.482,22.569,29.114Z" transform="translate(1124 115.621)"/><path d="M6,0A6,6,0,1,1,0,6,6,6,0,0,1,6,0Z" transform="translate(1133 134.909)"/><text class="a" transform="translate(1139 143.909)"><tspan x="-1.865" y="0">1</tspan></text></g></svg>