<svg xmlns="http://www.w3.org/2000/svg" viewBox="0 0 36 36"><defs><style>.a{fill:#fff;stroke:#8e8e8e;}.b{fill:#8e8e8e;}.c{stroke:none;}.d{fill:none;}</style></defs><g transform="translate(-118 -361)"><g class="a" transform="translate(118 361)"><circle class="c" cx="18" cy="18" r="18"/><circle class="d" cx="18" cy="18" r="17.5"/></g><g transform="translate(126 371.708)"><path class="b" d="M109.2,285.4a1.72,1.72,0,1,0,1.729,1.72A1.725,1.725,0,0,0,109.2,285.4Z" transform="translate(-101.464 -270.828)"/><path class="b" d="M244.274,285.4a1.72,1.72,0,1,0,1.73,1.72A1.725,1.725,0,0,0,244.274,285.4Z" transform="translate(-228.99 -270.828)"/><path class="b" d="M77.569-1712c-1.033,0-1.077-1.172-1.077-1.172l-1.3-10.044-3.338-.878a.968.968,0,0,1-.677-1.175.936.936,0,0,1,1.141-.7l3.956,1.039a.958.958,0,0,1,.7.815l.594,4.977.623,5.109H87.57l.489-1.693-7.863,0a.789.789,0,0,1-.777-.8.788.788,0,0,1,.777-.8l8.323,0,.519-1.81H87.39a5.768,5.768,0,0,1-3.295,1.029,5.807,5.807,0,0,1-5.8-5.8,5.806,5.806,0,0,1,5.8-5.8,5.807,5.807,0,0,1,5.8,5.8,5.766,5.766,0,0,1-.867,3.047H90.1c1.533,0,.923,1.64.923,1.641l-2.055,6.285a1.115,1.115,0,0,1-1.036.932Zm2.314-11.905A4.216,4.216,0,0,0,84.1-1719.7a4.217,4.217,0,0,0,4.212-4.212,4.217,4.217,0,0,0-4.212-4.212A4.217,4.217,0,0,0,79.883-1723.909Z" transform="translate(-71.148 1726)"/><path class="b" d="M73.147-1723.858v-1.35H71.9a.75.75,0,0,1-.75-.75.75.75,0,0,1,.75-.751h1.25v-1.25a.75.75,0,0,1,.751-.75.75.75,0,0,1,.75.75v1.25H76a.75.75,0,0,1,.75.751.75.75,0,0,1-.75.75h-1.35v1.35a.75.75,0,0,1-.75.75A.75.75,0,0,1,73.147-1723.858Z" transform="translate(-61 1728)"/></g></g></svg>