<svg xmlns="http://www.w3.org/2000/svg" viewBox="0 0 20.5 20.5"><defs><style>.a{fill:#4b5156;stroke:#707070;stroke-width:0.5px;}</style></defs><path class="a" d="M20,10A10,10,0,1,0,3.52,17.6a.334.334,0,0,0,.1.076A9.894,9.894,0,0,0,10.025,20a10.105,10.105,0,0,0,6.352-2.27.4.4,0,0,0,.229-.18A10.125,10.125,0,0,0,20,10ZM.919,10a9.082,9.082,0,1,1,15.614,6.3,6.776,6.776,0,0,0-3.368-4.566A3.9,3.9,0,0,0,14,9.288a3.98,3.98,0,1,0-7.96,0,4.118,4.118,0,0,0,.841,2.45A6.618,6.618,0,0,0,3.522,16.3,8.909,8.909,0,0,1,.919,10Zm6.021-.69A3.061,3.061,0,1,1,10,12.373,3.07,3.07,0,0,1,6.94,9.311Zm-2.6,7.781a5.719,5.719,0,0,1,3.215-4.644,3.953,3.953,0,0,0,2.45.841,4.05,4.05,0,0,0,2.475-.867,5.829,5.829,0,0,1,3.241,4.644,9.092,9.092,0,0,1-5.688,2.015A9,9,0,0,1,4.337,17.092Z" transform="translate(0.25 0.25)"/></svg>