<svg xmlns="http://www.w3.org/2000/svg" viewBox="0 0 20 23.989"><g transform="translate(0 0)"><path d="M113.361,4.963l2.406-2.828.056,14.148a.539.539,0,1,0,1.064,0l-.056-14.148,2.406,2.828a.478.478,0,0,0,.752,0,.705.705,0,0,0,0-.885l-3.314-3.9a.478.478,0,0,0-.752,0l-3.314,3.9a.705.705,0,0,0,0,.885A.478.478,0,0,0,113.361,4.963Z" transform="translate(-106.298 0)"/><path d="M78.93,87.557H71.84a.57.57,0,0,0,0,1.14h6.524V102.95H60.626V88.7H67.16a.57.57,0,0,0,0-1.14h-7.1a.568.568,0,0,0-.565.57V103.52a.568.568,0,0,0,.565.57H78.93a.568.568,0,0,0,.565-.57V88.127A.568.568,0,0,0,78.93,87.557Z" transform="translate(-59.495 -80.101)"/></g></svg>