<svg xmlns="http://www.w3.org/2000/svg" viewBox="0 0 11.556 16"><defs><style>.a{fill:#8e8e8e;}.b{fill:#8e8e93;}</style></defs><g transform="translate(0 0)"><path class="a" d="M149.389,11.077a3.159,3.159,0,0,0,2.267-.9A2.9,2.9,0,0,0,152.6,8V3.077A2.9,2.9,0,0,0,151.656.9a3.294,3.294,0,0,0-4.534,0,2.9,2.9,0,0,0-.943,2.173V8a2.9,2.9,0,0,0,.943,2.173A3.16,3.16,0,0,0,149.389,11.077Z" transform="translate(-143.611)"/><path class="b" d="M84.452,182.907a.649.649,0,0,0-.9,0,.58.58,0,0,0-.19.433v1.231a4.064,4.064,0,0,1-1.319,3.043,4.618,4.618,0,0,1-6.349,0,4.064,4.064,0,0,1-1.319-3.043v-1.231a.58.58,0,0,0-.191-.433.649.649,0,0,0-.9,0,.579.579,0,0,0-.191.433v1.231a5.219,5.219,0,0,0,1.48,3.7,5.686,5.686,0,0,0,3.656,1.8v1.269H75.655a.63.63,0,0,0-.451.183.586.586,0,0,0,0,.865.631.631,0,0,0,.451.183h6.419a.63.63,0,0,0,.451-.183.586.586,0,0,0,0-.865.63.63,0,0,0-.451-.183H79.507V190.07a5.686,5.686,0,0,0,3.656-1.8,5.218,5.218,0,0,0,1.48-3.7v-1.231A.579.579,0,0,0,84.452,182.907Z" transform="translate(-73.087 -176.57)"/></g></svg>