<svg xmlns="http://www.w3.org/2000/svg" viewBox="0 0 196 260"><defs><style>.a{font-size:38px;font-family:SFProText-BoldItalic, SF Pro Text;font-weight:700;font-style:italic;}.b{fill:#fff;}</style></defs><g transform="translate(-90 -247)"><text class="a" transform="translate(99 498)"><tspan x="0" y="0">NomNom</tspan></text><path d="M98,0A98,98,0,1,1,0,98,98,98,0,0,1,98,0Z" transform="translate(90 247)"/><g transform="translate(132.098 281)"><path class="b" d="M37.108,31.993a2.239,2.239,0,0,0,2.84-1.4,3.951,3.951,0,0,1,5-2.464,8.435,8.435,0,0,0,10.681-5.269,2.24,2.24,0,1,0-4.243-1.44,3.945,3.945,0,0,1-5,2.464A8.446,8.446,0,0,0,35.706,29.15,2.244,2.244,0,0,0,37.108,31.993Z" transform="translate(36.811 24.673)"/><path class="b" d="M39.474,25.027a2.239,2.239,0,0,0,2.84-1.4,3.937,3.937,0,0,1,5-2.464A8.435,8.435,0,0,0,57.995,15.89a2.239,2.239,0,1,0-4.24-1.44,3.943,3.943,0,0,1-5,2.466,8.419,8.419,0,0,0-10.681,5.269A2.241,2.241,0,0,0,39.474,25.027Z" transform="translate(39.746 16.029)"/><path class="b" d="M41.839,17.343a2.242,2.242,0,0,0,2.843-1.4,2.917,2.917,0,0,1,3.692-1.821A7.388,7.388,0,0,0,57.75,9.5a2.24,2.24,0,1,0-4.243-1.44,2.9,2.9,0,0,1-3.694,1.817A7.41,7.41,0,0,0,40.438,14.5,2.242,2.242,0,0,0,41.839,17.343Z" transform="translate(42.679 8.105)"/><path class="b" d="M99.461,56.043a157.657,157.657,0,0,0,7.247-42.152,16.044,16.044,0,0,0-4.193-10.945C99.4-.246,95.171-.9,91,1.253,84.3,4.7,79.52,14.859,75.676,23.022c-.222.47-.439.93-.654,1.384a12.971,12.971,0,0,0-7.1-8.987A10.685,10.685,0,0,0,59.617,7.16a6.929,6.929,0,0,0-.17-.692A7.728,7.728,0,0,0,53.042,1a7.523,7.523,0,0,0-4.762.977,8.144,8.144,0,0,0-3.96-1.03A8.253,8.253,0,0,0,36.3,7.3a10.093,10.093,0,0,0-7.415,9.612,11.217,11.217,0,0,0-7.639,14.915,8.814,8.814,0,0,0-1.23,9.054c-2.238-2.442-5.387-4.438-8.925-4.308a2.241,2.241,0,0,0,.067,4.48c.076,0,.146,0,.217,0,2.1,0,4.05,1.389,5.47,3-3.553,1.024-7.836,2.69-9.834,6.458-1.2,2.265-1.342,5.045-.551,8.226a3.854,3.854,0,0,0-.551,2.233l3.813,54.183a12.759,12.759,0,0,0,12.748,12.114H85.351A12.749,12.749,0,0,0,98.1,115.193l3.911-56.105a2.957,2.957,0,0,0-.8-2.182A2.893,2.893,0,0,0,99.461,56.043ZM76.852,30.815c.887-1.655,1.855-3.707,2.879-5.882,3.367-7.15,7.981-16.942,13.32-19.7,2.419-1.245,4.487-.977,6.257.838a11.641,11.641,0,0,1,2.923,7.7A153.415,153.415,0,0,1,95.037,55.2c-.146.468-.468,1.414-.927,2.711l-3.817,1.7a2.081,2.081,0,0,0-.242.128,7,7,0,0,1-7.148,0l-1.6-.959a11.591,11.591,0,0,0-5.954-1.649,12.646,12.646,0,0,0-6.1,1.651l-1.595.959a7,7,0,0,1-2.861.887c.049-.168.105-.334.155-.5.621-2.115,1.29-4.2,1.989-6.268.255-.757.522-1.508.791-2.258q.877-2.466,1.828-4.881c.271-.688.531-1.384.811-2.065A147.041,147.041,0,0,1,76.852,30.815ZM50.97,57.318c-.246.043-.491.087-.733.146a11.514,11.514,0,0,0-2.162.692l-.43-1.967c.645.054,1.288.108,1.891.108,3.907,0,7.052-1.163,10.667-3.734a27.445,27.445,0,0,1,3.1-1.933c-.206.585-.41,1.167-.609,1.754-.143.421-.3.836-.437,1.259q-.988,2.991-1.87,6.03L58.9,58.78a11.591,11.591,0,0,0-5.954-1.649,11.37,11.37,0,0,0-1.611.128C51.216,57.273,51.093,57.3,50.97,57.318ZM47.41,27.041a.926.926,0,0,1-.394-1.81L59.583,22.5a.932.932,0,0,1,.907.728.913.913,0,0,1-.13.7.926.926,0,0,1-.578.405Zm.883,9.086c.262-.336.517-.663.764-.99a5.526,5.526,0,0,0,.461-.724,4.8,4.8,0,0,0,.426-3.34l9.35-2.043a5.119,5.119,0,0,0,.237.836,5.024,5.024,0,0,0,2.209,2.475c.34.188.7.376,1.064.571.3.159.6.325.909.491.146.078.293.157.439.237.267.15.524.316.784.479.222.137.441.278.656.428.249.172.486.363.724.556.208.17.408.356.6.547.213.208.423.421.618.654a7.7,7.7,0,0,1,.948,1.353c-.95,2.1-1.844,4.236-2.708,6.393-.134.334-.278.659-.41.992a22.863,22.863,0,0,0-7.757,3.873,13.184,13.184,0,0,1-10.97,2.663l-1.36-6.225C44.359,41.142,46.36,38.593,48.293,36.126Zm-13.264,55.7a2.24,2.24,0,1,1,0,4.48H19.349a2.24,2.24,0,1,1,0-4.48Zm-15.681,8.96H39.51a2.24,2.24,0,1,1,0,4.48H19.349a2.24,2.24,0,0,1,0-4.48ZM25.368,34l1.467-1.21-.952-1.642a6.735,6.735,0,0,1,5.56-10.114l2.719-.114-.634-2.646a5.52,5.52,0,0,1-.161-1.295,5.576,5.576,0,0,1,5.13-5.535l2.07-.157V9.064A3.762,3.762,0,0,1,44.323,5.43a3.7,3.7,0,0,1,2.5.981L48.4,7.83,49.9,6.342a3.1,3.1,0,0,1,2.614-.887,3.23,3.23,0,0,1,2.634,2.28,2.919,2.919,0,0,1,.105,1.189l-.262,2.5h2.522a6.167,6.167,0,0,1,6.133,5.728l.1,1.472,1.391.488a8.538,8.538,0,0,1,5.726,8.25A8.086,8.086,0,0,1,69.4,31.81a23.7,23.7,0,0,0-4.471-2.845c-.352-.186-.692-.365-1.035-.556a.49.49,0,0,1-.253-.383,1.278,1.278,0,0,1,.311-.995A4.809,4.809,0,0,0,65,22.894l-.271-1.234a4.85,4.85,0,0,0-5.683-3.645l-.6.13c-.007,0-.013,0-.018,0l-6.575,1.438-6.416,1.4A4.777,4.777,0,0,0,41.8,26.671l.134.609v.007s0,0,0,.009l.132.607a4.766,4.766,0,0,0,2.771,3.353,1.357,1.357,0,0,1,.741.724c.058.166.025.251-.105.466-.224.3-.461.6-.706.912s-.506.65-.766.992c-.081.105-.157.215-.237.323-.193.26-.383.529-.576.806-.1.141-.19.287-.287.432-.172.267-.34.54-.5.824-.092.159-.181.316-.271.479-.17.316-.325.65-.475.988-.063.141-.13.276-.188.421a12.91,12.91,0,0,0-.513,1.539c-.02.081-.029.168-.049.251a12.363,12.363,0,0,0-.253,1.436c-.022.2-.027.4-.04.607-.018.264-.052.517-.052.793-.065-.085-.128-.157-.193-.24-.148-.193-.3-.367-.444-.551-.332-.41-.665-.8-1-1.165-.164-.179-.329-.356-.493-.524-.352-.358-.708-.688-1.062-1-.132-.114-.262-.242-.394-.349A13.545,13.545,0,0,0,35.542,38.4c-.146-.09-.293-.157-.439-.24a10.89,10.89,0,0,0-1.048-.524c-.193-.083-.388-.155-.582-.222a9.039,9.039,0,0,0-.963-.282c-.195-.047-.39-.1-.585-.132a8.72,8.72,0,0,0-1.23-.116c-.094,0-.188-.027-.282-.027a11.634,11.634,0,0,0-6.326,2.133,4.265,4.265,0,0,1-.314-1.613A4.341,4.341,0,0,1,25.368,34ZM10.975,52.6c.948-1.785,3.248-3.147,7.242-4.29a12.089,12.089,0,0,0,5.009-2.874c.625-.6,1.216-1.116,1.788-1.579a18.143,18.143,0,0,1,1.472-1.089l.054-.034a8.96,8.96,0,0,1,2.619-1.223c.034-.009.065-.016.1-.022a5.07,5.07,0,0,1,1.16-.148c2.818,0,5.84,2.811,8.983,8.356A17,17,0,0,1,40.88,60.637c-.168-.016-.332-.038-.5-.065a6.97,6.97,0,0,1-2.283-.831l-1.6-.959a11.591,11.591,0,0,0-5.954-1.649,11.412,11.412,0,0,0-1.685.132,11.4,11.4,0,0,0-4.42,1.519l-.777.466a8.581,8.581,0,0,1-8.786,0l-3.017-1.812a3.868,3.868,0,0,0-1.263-.479A6.43,6.43,0,0,1,10.975,52.6ZM43.99,114.227H19.349a2.24,2.24,0,0,1,0-4.48H43.99a2.24,2.24,0,0,1,0,4.48Zm13.441,0H52.95a2.24,2.24,0,1,1,0-4.48h4.48a2.24,2.24,0,0,1,0,4.48Z" transform="translate(0 0)"/></g></g></svg>