<svg xmlns="http://www.w3.org/2000/svg" viewBox="0 0 17.009 17.009"><defs><style>.a{fill:#8e8e8e;stroke:rgba(0,0,0,0);fill-rule:evenodd;}</style></defs><path class="a" d="M15.707,14.371,11.326,9.989a6.2,6.2,0,0,0,1.2-3.694A6.322,6.322,0,0,0,6.241,0,6.213,6.213,0,0,0,0,6.25a6.322,6.322,0,0,0,6.286,6.3,6.181,6.181,0,0,0,3.7-1.213l0,0,4.377,4.379a.945.945,0,1,0,1.335-1.336ZM6.281,11.29A5.058,5.058,0,0,1,1.253,6.254a4.972,4.972,0,0,1,4.992-5A5.058,5.058,0,0,1,11.273,6.29a4.972,4.972,0,0,1-4.992,5Z" transform="translate(0.5 0.5)"/></svg>