<svg xmlns="http://www.w3.org/2000/svg" viewBox="0 0 12 12"><defs><style>.a{fill:#8e8e8e;}</style></defs><path class="a" d="M22.237,2.968V2.943c-.013-.025-.013-.051-.026-.076V2.854a.279.279,0,0,0-.053-.063l-.013-.013c-.013-.013-.04-.025-.053-.038l-.013-.013h-.013l-.013-.013L16.422.038a.439.439,0,0,0-.358,0l-1.894.9,5.656,2.778.013.013c.013,0,.013.013.026.013s.013.025.026.038V6.761a.132.132,0,0,1-.066.114l-1.139.571A.137.137,0,0,1,18.5,7.4c-.013-.013-.013-.038-.013-.063V4.452L12.767,1.624l-.013-.013L10.462,2.7l-.013.013h-.013l-.013.013c-.013.013-.04.025-.053.038l-.013.013c-.026.025-.04.051-.066.076v.013a.175.175,0,0,0-.026.076v.025c0,.025-.013.038-.013.063V8.955a.373.373,0,0,0,.225.342l5.576,2.664a.378.378,0,0,0,.265.025l.026-.013c.026,0,.04-.013.066-.025l5.616-2.664a.381.381,0,0,0,.225-.342V3.032A.11.11,0,0,1,22.237,2.968Z" transform="translate(-10.25)"/></svg>