<svg xmlns="http://www.w3.org/2000/svg" viewBox="0 0 107 50"><defs><style>.a{fill:#fff;stroke:#d9d9d9;}.b{stroke:none;}.c{fill:none;}</style></defs><g transform="translate(-24 -656)"><g class="a" transform="translate(24 656)"><rect class="b" width="107" height="50" rx="4"/><rect class="c" x="0.5" y="0.5" width="106" height="49" rx="3.5"/></g><g transform="translate(66 672)"><path d="M0,208v9.965a1.547,1.547,0,0,0,1.4,1.661H20.934a1.546,1.546,0,0,0,1.4-1.661V208Zm7.676,6.644H3.489a.843.843,0,0,1,0-1.661H7.676a.843.843,0,0,1,0,1.661Zm9.769,1.661a1.912,1.912,0,0,1-1.4-.646,1.912,1.912,0,0,1-1.4.646,2.529,2.529,0,0,1,0-4.983,1.912,1.912,0,0,1,1.4.646,1.912,1.912,0,0,1,1.4-.646,2.529,2.529,0,0,1,0,4.983Z" transform="translate(0 -201.357)"/><path d="M20.934,80H1.4A1.548,1.548,0,0,0,0,81.661v1.661H22.33V81.661A1.547,1.547,0,0,0,20.934,80Z" transform="translate(0 -80)"/></g></g></svg>