<svg xmlns="http://www.w3.org/2000/svg" xmlns:xlink="http://www.w3.org/1999/xlink" viewBox="0 0 358 84"><defs><style>.a,.d,.h{fill:none;}.a{opacity:0.385;}.b{clip-path:url(#a);}.c,.e,.f{fill:#fff;}.d{stroke:#8e8e93;}.e{font-size:28px;font-family:SFProText-SemiboldItalic, SF Pro Text;font-weight:600;font-style:italic;letter-spacing:-0.024em;}.f{font-size:14px;font-family:SFProText-Regular, SF Pro Text;letter-spacing:-0.011em;}.g{stroke:none;}</style><clipPath id="a"><rect class="a" width="358" height="84" rx="8"/></clipPath></defs><g transform="translate(0 -459)"><g class="b" transform="translate(0 459)"><rect width="358" height="83.641" rx="8"/><ellipse class="c" cx="60.257" cy="60" rx="60.257" ry="60" transform="translate(-39.698 -17)"/></g><g class="d" transform="translate(0 459)"><rect class="g" width="358" height="84" rx="8"/><rect class="h" x="0.5" y="0.5" width="357" height="83" rx="7.5"/></g><path d="M36.125,1.878A6.578,6.578,0,0,0,31.69.019a8.612,8.612,0,0,0-4.813,1.318A1.411,1.411,0,1,0,28.35,3.745c2.056-1.255,4.427-1.2,5.766.133a3.843,3.843,0,0,1,1.016,3.2A6.434,6.434,0,0,1,33.2,10.93a6.5,6.5,0,0,1-3.868,1.922,3.931,3.931,0,0,1-3.214-1.012,2.681,2.681,0,0,0-1.906-.784,2.719,2.719,0,0,0-1.914.784,2.694,2.694,0,0,0,1.914,4.6,2.719,2.719,0,0,0,1.914-.784,2.539,2.539,0,0,0,.3-.353,7.118,7.118,0,0,0,2.4.408c.26,0,.528-.016.8-.039.024,0,.047-.008.071-.008l.244,3.522a2.8,2.8,0,0,1-.811,2.157L15.92,34.478a1.917,1.917,0,0,1-2.694,0l-9.839-9.8a1.888,1.888,0,0,1,0-2.683L16.59,8.851a2.794,2.794,0,0,1,2.158-.808l11.729.777A1.415,1.415,0,1,0,30.666,6L18.937,5.219a5.613,5.613,0,0,0-4.348,1.632L1.386,20a4.72,4.72,0,0,0,0,6.683l9.831,9.789a4.769,4.769,0,0,0,6.711,0l13.2-13.147a5.6,5.6,0,0,0,1.638-4.346l-.284-4.126a10.007,10.007,0,0,0,2.733-1.93,9.245,9.245,0,0,0,2.741-5.561A6.657,6.657,0,0,0,36.125,1.878Z" transform="translate(20 481.889)"/><g transform="translate(101 475.927)"><text class="e" transform="translate(0 26)"><tspan x="0" y="0">get Daily Coupon</tspan></text><text class="f" transform="translate(1 45.855)"><tspan x="0" y="0">up to 50% off every day</tspan></text></g></g></svg>