<svg xmlns="http://www.w3.org/2000/svg" viewBox="0 0 48 49"><defs><style>.a{fill:none;}.b,.c,.d{fill:#fff;}.b{font-size:10px;font-family:SFProText-Regular, SF Pro Text;letter-spacing:-0.024em;}.c{stroke:#fff;stroke-width:0.5px;}</style></defs><g transform="translate(-14 -618)"><rect class="a" width="48" height="49" transform="translate(14 618)"/><text class="b" transform="translate(14 652)"><tspan x="10.962" y="10">Order</tspan></text><g transform="translate(18.546 623.687)"><path class="c" d="M32.871,7.1a.378.378,0,0,0-.088-.143.269.269,0,0,0-.176-.114L25.9,3.441,19.105.043a.444.444,0,0,0-.381,0L11.9,3.441l-6.736,3.4a.35.35,0,0,0-.205.2c-.029.057-.029.086-.059.143V20.8a.444.444,0,0,0,.234.371l13.561,6.768a.109.109,0,0,0,.088.029h.029c.029,0,.059.029.117.029a.27.27,0,0,0,.146-.029,620.407,620.407,0,0,0,.059-.057l13.531-6.739A.444.444,0,0,0,32.9,20.8V7.211C32.9,7.153,32.9,7.125,32.871,7.1ZM18.9.871l6.59,3.313,6.063,3.027-5.858,2.941L13.042,3.812Zm-.41,26.072-12.741-6.4V7.9l6.18,3.084,6.561,3.284ZM18.9,13.55l-6.59-3.313L6.247,7.211l5.858-2.941,12.653,6.34Zm13.151,7.025L19.31,26.915V14.264l6.561-3.284L32.051,7.9Z" transform="translate(0)"/><path class="d" d="M257.468,163.194c.029,0,0-.029,0-.057a1.113,1.113,0,0,0-.674-.628,1.373,1.373,0,0,0-1.054.086l-3.222,1.514a1.924,1.924,0,0,0-.82.771,1.2,1.2,0,0,0-.088,1,1.16,1.16,0,0,0,.674.657,1.373,1.373,0,0,0,1.054-.086l3.222-1.514a1.923,1.923,0,0,0,.82-.771A1.256,1.256,0,0,0,257.468,163.194Zm-.849.742a.7.7,0,0,1-.293.286l-3.222,1.514a.522.522,0,0,1-.41.029.413.413,0,0,1-.264-.228v-.029a.544.544,0,0,1,.029-.371.7.7,0,0,1,.293-.286l3.222-1.514a.522.522,0,0,1,.41-.029.389.389,0,0,1,.264.257A.418.418,0,0,1,256.619,163.936Z" transform="translate(-228.581 -149.701)"/></g></g></svg>