<svg xmlns="http://www.w3.org/2000/svg" viewBox="0 0 17.603 16.852"><g transform="translate(0)"><path d="M8.8,0A8.62,8.62,0,0,0,0,8.426a8.62,8.62,0,0,0,8.8,8.426,8.619,8.619,0,0,0,8.8-8.426A8.619,8.619,0,0,0,8.8,0Zm2.4,11.679a2.85,2.85,0,0,1-1.876.821v1.192H8.283V12.506a2.685,2.685,0,0,1-2.532-2.275l1.612-.4a1.379,1.379,0,0,0,1.483,1.3,1.18,1.18,0,0,0,.867-.279.921.921,0,0,0,.277-.674.729.729,0,0,0-.277-.619,5.115,5.115,0,0,0-1.233-.535,7.424,7.424,0,0,1-1.343-.565,2.169,2.169,0,0,1-.785-.78,2.235,2.235,0,0,1-.3-1.17,2.522,2.522,0,0,1,.539-1.576,2.442,2.442,0,0,1,1.7-.855V3.16H9.326V4.08a2.489,2.489,0,0,1,2.262,1.893l-1.435.564q-.421-1.16-1.3-1.16a.971.971,0,0,0-.708.259.843.843,0,0,0-.268.628.691.691,0,0,0,.258.578,4.515,4.515,0,0,0,1.1.5,10.008,10.008,0,0,1,1.456.613,2.244,2.244,0,0,1,.843.8,2.217,2.217,0,0,1,.315,1.189A2.452,2.452,0,0,1,11.2,11.679Z"/></g></svg>