<svg xmlns="http://www.w3.org/2000/svg" viewBox="0 0 15.441 15.602"><path d="M41.036,28.618H54.679V21.747h.9v-3.9H51.543a2.639,2.639,0,0,0,.807-.5,2.537,2.537,0,0,0-3.588-3.588,5.866,5.866,0,0,0-1.027,2.584,4.985,4.985,0,0,0-.9-2.175h0a2.331,2.331,0,1,0-3.3,3.3,2.126,2.126,0,0,0,.57.378H40.137v3.9h.9v6.871ZM54.618,18.8v1.984H48.478V18.8Zm-5.178-4.365a1.576,1.576,0,0,1,2.229,2.23,8.175,8.175,0,0,1-3.192.962A8.176,8.176,0,0,1,49.441,14.437Zm-5.222.409a1.371,1.371,0,0,1,1.939,0A7.157,7.157,0,0,1,47,17.627a7.145,7.145,0,0,1-2.781-.843A1.372,1.372,0,0,1,44.219,14.846ZM41.1,18.8H47v1.984H41.1Z" transform="translate(-40.137 -13.016)"/></svg>